<svg width="32" height="33" viewBox="0 0 32 33" fill="none" xmlns="http://www.w3.org/2000/svg">
<path d="M11.9997 13.8333H2.66634C2.31272 13.8333 1.97358 13.6928 1.72353 13.4427C1.47348 13.1927 1.33301 12.8535 1.33301 12.4999V3.16659C1.33301 2.81296 1.47348 2.47382 1.72353 2.22378C1.97358 1.97373 2.31272 1.83325 2.66634 1.83325H11.9997C12.3533 1.83325 12.6924 1.97373 12.9425 2.22378C13.1925 2.47382 13.333 2.81296 13.333 3.16659V12.4999C13.333 12.8535 13.1925 13.1927 12.9425 13.4427C12.6924 13.6928 12.3533 13.8333 11.9997 13.8333Z" fill="#7C3AED"/>
<path d="M11.9997 31.1665H2.66634C2.31272 31.1665 1.97358 31.026 1.72353 30.776C1.47348 30.5259 1.33301 30.1868 1.33301 29.8332V20.4998C1.33301 20.1462 1.47348 19.8071 1.72353 19.557C1.97358 19.307 2.31272 19.1665 2.66634 19.1665H11.9997C12.3533 19.1665 12.6924 19.307 12.9425 19.557C13.1925 19.8071 13.333 20.1462 13.333 20.4998V29.8332C13.333 30.1868 13.1925 30.5259 12.9425 30.776C12.6924 31.026 12.3533 31.1665 11.9997 31.1665Z" fill="#7C3AED"/>
<path d="M17.333 3.1665H30.6663V5.83317H17.333V3.1665Z" fill="#1DB5BE"/>
<path d="M30.6663 20.5H17.333V23.1667H30.6663V20.5Z" fill="#1DB5BE"/>
<path d="M30.6663 27.1665H17.333V29.8332H30.6663V27.1665Z" fill="#C4B5FD"/>
<path d="M30.6663 9.83325H17.333V12.4999H30.6663V9.83325Z" fill="#C4B5FD"/>
</svg>
