<svg width="32" height="33" viewBox="0 0 32 33" fill="none" xmlns="http://www.w3.org/2000/svg">
<path d="M6.66634 1.83325H2.66634C2.31272 1.83325 1.97358 1.97373 1.72353 2.22378C1.47348 2.47382 1.33301 2.81296 1.33301 3.16659V29.8333C1.33301 30.1869 1.47348 30.526 1.72353 30.7761C1.97358 31.0261 2.31272 31.1666 2.66634 31.1666H6.66634V1.83325Z" fill="#C4B5FD"/>
<path d="M9.33301 31.1666H22.6663V1.83325H9.33301V31.1666ZM15.9997 25.8333C15.6461 25.8333 15.3069 25.6928 15.0569 25.4427C14.8068 25.1927 14.6663 24.8535 14.6663 24.4999C14.6663 24.1463 14.8068 23.8072 15.0569 23.5571C15.3069 23.3071 15.6461 23.1666 15.9997 23.1666C16.3533 23.1666 16.6924 23.3071 16.9425 23.5571C17.1925 23.8072 17.333 24.1463 17.333 24.4999C17.333 24.8535 17.1925 25.1927 16.9425 25.4427C16.6924 25.6928 16.3533 25.8333 15.9997 25.8333ZM15.9997 7.16658C16.3533 7.16658 16.6924 7.30706 16.9425 7.55711C17.1925 7.80716 17.333 8.1463 17.333 8.49992C17.333 8.85354 17.1925 9.19268 16.9425 9.44273C16.6924 9.69278 16.3533 9.83325 15.9997 9.83325C15.6461 9.83325 15.3069 9.69278 15.0569 9.44273C14.8068 9.19268 14.6663 8.85354 14.6663 8.49992C14.6663 8.1463 14.8068 7.80716 15.0569 7.55711C15.3069 7.30706 15.6461 7.16658 15.9997 7.16658ZM15.9997 15.1666C16.3533 15.1666 16.6924 15.3071 16.9425 15.5571C17.1925 15.8072 17.333 16.1463 17.333 16.4999C17.333 16.8535 17.1925 17.1927 16.9425 17.4427C16.6924 17.6928 16.3533 17.8333 15.9997 17.8333C15.6461 17.8333 15.3069 17.6928 15.0569 17.4427C14.8068 17.1927 14.6663 16.8535 14.6663 16.4999C14.6663 16.1463 14.8068 15.8072 15.0569 15.5571C15.3069 15.3071 15.6461 15.1666 15.9997 15.1666Z" fill="#7C3AED"/>
<path d="M29.333 1.83325H25.333V31.1666H29.333C29.6866 31.1666 30.0258 31.0261 30.2758 30.7761C30.5259 30.526 30.6663 30.1869 30.6663 29.8333V3.16659C30.6663 2.81296 30.5259 2.47382 30.2758 2.22378C30.0258 1.97373 29.6866 1.83325 29.333 1.83325Z" fill="#1DB5BE"/>
</svg>
