<svg width="32" height="33" viewBox="0 0 32 33" fill="none" xmlns="http://www.w3.org/2000/svg">
<g clip-path="url(#clip0_344_3288)">
<path d="M28.0003 32.5001H16.0003C15.6467 32.5001 15.3076 32.3596 15.0575 32.1096C14.8075 31.8595 14.667 31.5204 14.667 31.1667V28.5001C14.667 28.1465 14.8075 27.8073 15.0575 27.5573C15.3076 27.3072 15.6467 27.1667 16.0003 27.1667H28.0003C28.3539 27.1667 28.6931 27.3072 28.9431 27.5573C29.1932 27.8073 29.3337 28.1465 29.3337 28.5001V31.1667C29.3337 31.5204 29.1932 31.8595 28.9431 32.1096C28.6931 32.3596 28.3539 32.5001 28.0003 32.5001Z" fill="#C4B5FD"/>
<path d="M28.0003 0.5H4.00033C3.6467 0.5 3.30756 0.640475 3.05752 0.890523C2.80747 1.14057 2.66699 1.47971 2.66699 1.83333V4.5C2.66699 4.85362 2.80747 5.19276 3.05752 5.44281C3.30756 5.69286 3.6467 5.83333 4.00033 5.83333H28.0003C28.3539 5.83333 28.6931 5.69286 28.9431 5.44281C29.1932 5.19276 29.3337 4.85362 29.3337 4.5V1.83333C29.3337 1.47971 29.1932 1.14057 28.9431 0.890523C28.6931 0.640475 28.3539 0.5 28.0003 0.5Z" fill="#1DB5BE"/>
<path d="M28.0003 8.5H4.00033C3.6467 8.5 3.30756 8.64047 3.05752 8.89052C2.80747 9.14057 2.66699 9.47971 2.66699 9.83333V23.1667C2.66699 23.5203 2.80747 23.8594 3.05752 24.1095C3.30756 24.3595 3.6467 24.5 4.00033 24.5H28.0003C28.3539 24.5 28.6931 24.3595 28.9431 24.1095C29.1932 23.8594 29.3337 23.5203 29.3337 23.1667V9.83333C29.3337 9.47971 29.1932 9.14057 28.9431 8.89052C28.6931 8.64047 28.3539 8.5 28.0003 8.5Z" fill="#7C3AED"/>
</g>
<defs>
<clipPath id="clip0_344_3288">
<rect width="32" height="32" fill="white" transform="translate(0 0.5)"/>
</clipPath>
</defs>
</svg>
