<svg width="128" height="32" viewBox="0 0 128 32" fill="none" xmlns="http://www.w3.org/2000/svg">
<g clip-path="url(#clip0_347_5542)">
<g clip-path="url(#clip1_347_5542)">
<path d="M0.657227 32H11.5065C16.6511 32 20.8216 27.8295 20.8216 22.6849H9.97229C4.82772 22.6849 0.657227 26.8554 0.657227 32Z" fill="#F22BB2"/>
<path d="M1.14258 9.31507V23.0137C6.28715 23.0137 10.4576 18.8432 10.4576 13.6986V0C5.31308 0 1.14258 4.1705 1.14258 9.31507Z" fill="#8C30F5"/>
<path d="M31.3421 0H20.4928C15.3482 0 11.1777 4.1705 11.1777 9.31507H22.027C27.1716 9.31507 31.3421 5.14457 31.3421 0Z" fill="#FE9A22"/>
<path d="M31.3424 22.137V8.43835C26.1978 8.43835 22.0273 12.6089 22.0273 17.7534V31.4521C27.1719 31.4521 31.3424 27.2816 31.3424 22.137Z" fill="#2EC5CE"/>
</g>
<path d="M46.1718 20.48V7.99999H42.5146V24H51.8861V20.48H46.1718Z" fill="black"/>
<path d="M61.568 12.5714V13.6457C60.8138 12.7771 59.6938 12.2514 58.1623 12.2514C55.168 12.2514 52.6995 14.88 52.6995 18.2857C52.6995 21.6914 55.168 24.32 58.1623 24.32C59.6938 24.32 60.8138 23.7943 61.568 22.9257V24H64.9966V12.5714H61.568ZM58.848 21.0743C57.2709 21.0743 56.128 20 56.128 18.2857C56.128 16.5714 57.2709 15.4971 58.848 15.4971C60.4252 15.4971 61.568 16.5714 61.568 18.2857C61.568 20 60.4252 21.0743 58.848 21.0743Z" fill="black"/>
<path d="M74.2091 12.2514C72.7005 12.2514 71.5577 12.8 70.9405 13.6457V12.5714H67.512V24H70.9405V17.76C70.9405 16.1371 71.8091 15.4057 73.0663 15.4057C74.1634 15.4057 75.0548 16.0686 75.0548 17.4857V24H78.4834V16.9828C78.4834 13.8971 76.5177 12.2514 74.2091 12.2514Z" fill="black"/>
<path d="M89.135 7.99999V13.6457C88.3807 12.7771 87.2607 12.2514 85.7293 12.2514C82.735 12.2514 80.2664 14.88 80.2664 18.2857C80.2664 21.6914 82.735 24.32 85.7293 24.32C87.2607 24.32 88.3807 23.7943 89.135 22.9257V24H92.5636V7.99999H89.135ZM86.415 21.0743C84.8379 21.0743 83.695 20 83.695 18.2857C83.695 16.5714 84.8379 15.4971 86.415 15.4971C87.9921 15.4971 89.135 16.5714 89.135 18.2857C89.135 20 87.9921 21.0743 86.415 21.0743Z" fill="black"/>
<path d="M96.7932 11.5657C97.9132 11.5657 98.8504 10.6286 98.8504 9.50856C98.8504 8.38856 97.9132 7.45142 96.7932 7.45142C95.6732 7.45142 94.7361 8.38856 94.7361 9.50856C94.7361 10.6286 95.6732 11.5657 96.7932 11.5657ZM95.0789 24H98.5075V12.5714H95.0789V24Z" fill="black"/>
<path d="M107.302 10.9714V7.67999C103.508 7.45142 101.748 9.37142 101.748 12.5714H100.216V15.8628H101.748V24H105.176V15.8628H107.302V12.5714H105.176C105.176 11.2457 106.022 10.8571 107.302 10.9714Z" fill="black"/>
<path d="M116.207 12.5714L114.059 19.5657L111.522 12.5714H107.75L112.299 23.4743C111.796 24.8686 111.042 25.3714 109.442 25.3714V28.5714C112.642 28.7314 114.676 27.2914 115.956 23.6571L119.865 12.5714H116.207Z" fill="black"/>
<path d="M123.168 4.80005H120.078V5.59205H121.206V9.00005H122.034V5.59205H123.168V4.80005Z" fill="black"/>
<path d="M127.74 4.80005H126.888L125.688 6.78605L124.482 4.80005H123.63V9.00005H124.458V6.28205L125.64 8.22605H125.736L126.918 6.27605V9.00005H127.74V4.80005Z" fill="black"/>
</g>
<defs>
<clipPath id="clip0_347_5542">
<rect width="128" height="32" fill="white"/>
</clipPath>
<clipPath id="clip1_347_5542">
<rect width="32" height="32" fill="white"/>
</clipPath>
</defs>
</svg>
