<svg width="112" height="32" viewBox="0 0 112 32" fill="none" xmlns="http://www.w3.org/2000/svg">
<g clip-path="url(#clip0_344_3129)">
<path fill-rule="evenodd" clip-rule="evenodd" d="M24.4509 4.87952H8.23633V13.7962H16.2147C16.4989 13.7962 16.7295 14.0491 16.7295 14.3608V22.9905H24.9657V5.44519C24.9659 5.37096 24.9526 5.29742 24.9268 5.2288C24.901 5.16017 24.8631 5.0978 24.8153 5.04526C24.7675 4.99272 24.7107 4.95104 24.6481 4.9226C24.5856 4.89416 24.5186 4.87952 24.4509 4.87952V4.87952Z" fill="#8E75FF"/>
<path opacity="0.405" fill-rule="evenodd" clip-rule="evenodd" d="M8.23511 4.87952V13.7962H0.628519C0.577411 13.7961 0.527483 13.7793 0.485072 13.748C0.442661 13.7168 0.409681 13.6724 0.390318 13.6205C0.370955 13.5686 0.366083 13.5116 0.37632 13.4567C0.386556 13.4018 0.411441 13.3514 0.447813 13.312L8.23511 4.87952ZM17.1678 31.4323C17.1316 31.4713 17.0857 31.4977 17.0358 31.5083C16.986 31.5188 16.9344 31.5129 16.8876 31.4914C16.8407 31.4699 16.8007 31.4337 16.7726 31.3874C16.7444 31.3411 16.7293 31.2867 16.7292 31.231V22.9905H24.9655L17.1678 31.4313V31.4323Z" fill="#8E75FF"/>
<path opacity="0.405" d="M8.23535 13.7961H16.4725C16.6137 13.7961 16.7295 13.9221 16.7295 14.0779V22.9905H8.75112C8.61458 22.9905 8.48363 22.931 8.38708 22.8251C8.29053 22.7192 8.23629 22.5756 8.23629 22.4258V13.7961H8.23535Z" fill="#8E75FF"/>
<path fill-rule="evenodd" clip-rule="evenodd" d="M108.019 4.31689C108.48 4.8165 109.023 5.06527 109.649 5.06527C110.296 5.06527 110.849 4.8165 111.31 4.31689C111.77 3.81727 112 3.22889 112 2.54863C112 1.8694 111.77 1.27482 111.31 0.764887C111.096 0.518992 110.838 0.324145 110.552 0.192531C110.267 0.0609165 109.959 -0.00463237 109.649 -1.62222e-05C109.023 -1.62222e-05 108.48 0.254952 108.019 0.763855C107.559 1.27482 107.329 1.86837 107.329 2.54966C107.329 3.22889 107.559 3.81727 108.019 4.31689V4.31689ZM58.0805 10.8325C58.0805 10.8841 58.041 10.9275 57.993 10.9275H54.76V17.5546C54.76 18.1068 54.888 18.5104 55.1421 18.7654C55.3963 19.0204 55.769 19.1628 56.2584 19.1948C56.7064 19.2248 57.2523 19.2227 57.897 19.1897L57.9883 19.1845C58 19.1838 58.0118 19.1857 58.0228 19.1902C58.0339 19.1947 58.044 19.2015 58.0526 19.2104C58.0611 19.2193 58.0679 19.23 58.0725 19.2419C58.0772 19.2538 58.0796 19.2666 58.0796 19.2795V22.8211C58.0797 22.8446 58.0719 22.8674 58.0576 22.8849C58.0434 22.9024 58.0237 22.9136 58.0024 22.9161L57.9431 22.9233C55.4113 23.2155 53.6203 22.944 52.5718 22.1099C51.5045 21.2604 50.9718 19.7419 50.9718 17.5546V10.9275H48.5021C48.4792 10.9275 48.4572 10.9175 48.4409 10.8997C48.4247 10.8818 48.4156 10.8577 48.4156 10.8325V7.07198C48.4156 7.02037 48.4541 6.97702 48.5021 6.97702H50.9708V4.34785C50.9708 4.27147 51.0123 4.20334 51.0753 4.17237L54.6386 2.47224C54.6518 2.46567 54.6663 2.46285 54.6808 2.46402C54.6952 2.4652 54.7092 2.47033 54.7214 2.47897C54.7335 2.4876 54.7436 2.49944 54.7505 2.51342C54.7574 2.52739 54.761 2.54305 54.761 2.55895V6.97702H57.993C58.04 6.97702 58.0796 7.01934 58.0796 7.07198V10.8325H58.0805ZM64.9511 9.71766C65.3031 8.69779 65.8857 7.93289 66.6979 7.42295C67.4992 6.92257 68.4054 6.65934 69.3276 6.65908C69.3756 6.65908 69.4151 6.7014 69.4151 6.75508V11.0751C69.415 11.0967 69.4109 11.1181 69.4029 11.1378C69.3949 11.1576 69.3831 11.1753 69.3685 11.1897C69.3539 11.2042 69.3367 11.2152 69.3179 11.2219C69.2992 11.2287 69.2794 11.2311 69.2598 11.2289C68.1671 11.1215 67.1854 11.3827 66.3158 12.0113C65.4057 12.6689 64.9511 13.7631 64.9511 15.2929V22.8119C64.9511 22.8244 64.9488 22.8369 64.9444 22.8484C64.94 22.86 64.9335 22.8705 64.9254 22.8794C64.9173 22.8882 64.9076 22.8952 64.897 22.8999C64.8864 22.9046 64.875 22.907 64.8636 22.9068H61.2475C61.2246 22.9068 61.2026 22.8968 61.1863 22.879C61.1701 22.8612 61.161 22.837 61.161 22.8119V7.07095C61.161 7.01934 61.1995 6.97598 61.2475 6.97598H64.8636C64.9106 6.97598 64.9501 7.01831 64.9501 7.07095V9.7156L64.9511 9.71766ZM82.8673 6.97702C82.8559 6.97688 82.8445 6.97924 82.8339 6.98395C82.8233 6.98866 82.8136 6.99563 82.8055 7.00446C82.7973 7.0133 82.7909 7.02381 82.7865 7.0354C82.7821 7.04699 82.7798 7.05943 82.7798 7.07198V8.85779C81.6447 7.30631 80.0485 6.53108 77.992 6.53108C76.0344 6.53108 74.3544 7.34347 72.9548 8.96824C71.5544 10.593 70.8541 12.5842 70.8541 14.9419C70.8541 17.2996 71.5544 19.2908 72.9548 20.9156C74.3544 22.5404 76.0344 23.3528 77.992 23.3528C80.0485 23.3528 81.6438 22.5775 82.7798 21.0271V22.8119C82.7798 22.8635 82.8193 22.9068 82.8673 22.9068H86.4824C86.5304 22.9068 86.5699 22.8645 86.5699 22.8119V7.07095C86.5699 7.05839 86.5676 7.04596 86.5632 7.03437C86.5588 7.02278 86.5524 7.01226 86.5442 7.00343C86.5361 6.9946 86.5264 6.98763 86.5158 6.98291C86.5052 6.9782 86.4938 6.97585 86.4824 6.97598H82.8673V6.97702ZM75.7897 18.1915C76.553 19.0204 77.5214 19.4343 78.6979 19.4343C79.8725 19.4343 80.8466 19.0142 81.6203 18.175C82.3939 17.3368 82.7798 16.2591 82.7798 14.9419C82.7798 13.6248 82.3939 12.5471 81.6203 11.7079C80.8466 10.8697 79.8725 10.4495 78.697 10.4495C77.5224 10.4495 76.553 10.8697 75.7887 11.7089C75.0264 12.5471 74.6433 13.6248 74.6433 14.9419C74.6433 16.2591 75.0254 17.3419 75.7897 18.1915V18.1915ZM103.413 8.96824C102.013 7.34347 100.323 6.53108 98.3459 6.53108C96.2894 6.53108 94.7035 7.30631 93.5873 8.85676V7.07198C93.5873 7.0468 93.5782 7.02264 93.562 7.00483C93.5457 6.98702 93.5237 6.97702 93.5007 6.97702H89.8847C89.8618 6.97702 89.8397 6.98702 89.8235 7.00483C89.8073 7.02264 89.7981 7.0468 89.7981 7.07198V29.183C89.7981 29.2356 89.8367 29.279 89.8847 29.279H93.5007C93.5478 29.279 93.5873 29.2356 93.5873 29.183V21.0271C94.7035 22.5775 96.2894 23.3528 98.3459 23.3528C100.323 23.3528 102.013 22.5404 103.413 20.9156C104.813 19.2908 105.513 17.2996 105.513 14.9419C105.513 12.5842 104.813 10.593 103.413 8.96824V8.96824ZM94.7327 18.1915C95.497 19.0204 96.4654 19.4343 97.641 19.4343C98.8156 19.4343 99.7897 19.0142 100.563 18.175C101.337 17.3368 101.724 16.2591 101.724 14.9419C101.724 13.6248 101.337 12.5471 100.563 11.7079C99.7897 10.8697 98.8156 10.4495 97.641 10.4495C96.4654 10.4495 95.497 10.8697 94.7327 11.7089C93.9694 12.5471 93.5873 13.6248 93.5873 14.9419C93.5873 16.2591 93.9694 17.3419 94.7327 18.1915V18.1915ZM107.856 22.9068C107.834 22.9068 107.812 22.8968 107.795 22.879C107.779 22.8612 107.77 22.837 107.77 22.8119V7.07095C107.77 7.01934 107.808 6.97598 107.856 6.97598H111.472C111.52 6.97598 111.559 7.01831 111.559 7.07095V22.8129C111.559 22.8381 111.55 22.8622 111.534 22.88C111.517 22.8979 111.495 22.9079 111.472 22.9079H107.856V22.9068ZM40.2941 12.5368C39.7746 12.2715 39.5158 11.9257 39.5158 11.5014C39.5158 11.0978 39.6767 10.7788 40.0005 10.5455C40.3233 10.3122 40.7299 10.1946 41.2193 10.1946C42.1577 10.1946 42.8664 10.592 43.3464 11.3858C43.3624 11.4127 43.3865 11.4327 43.4145 11.4421C43.4426 11.4515 43.4728 11.4499 43.4998 11.4374L46.6979 9.90244C46.709 9.897 46.7189 9.88907 46.7269 9.87918C46.735 9.86928 46.7411 9.85763 46.7449 9.84498C46.7486 9.83233 46.7499 9.81896 46.7486 9.80574C46.7473 9.79253 46.7435 9.77975 46.7374 9.76824C46.7006 9.70094 46.663 9.63418 46.6245 9.56799C46.0777 8.63379 45.369 7.93702 44.4796 7.40747C43.5007 6.82321 42.4137 6.53108 41.2193 6.53108C39.6325 6.53108 38.3064 6.98218 37.2381 7.8854C36.1718 8.7876 35.6381 10.0253 35.6381 11.5964C35.6381 12.6379 35.8979 13.503 36.4165 14.1935C36.9177 14.8696 37.5706 15.3911 38.3111 15.7068C39.0546 16.0248 39.7991 16.2911 40.5436 16.5027C41.2871 16.7153 41.9196 16.9548 42.4381 17.2201C42.9567 17.4854 43.2165 17.8302 43.2165 18.2555C43.2165 19.169 42.5407 19.6253 41.1901 19.6253C39.9036 19.6253 39.0123 19.1091 38.5163 18.079C38.4964 18.0355 38.4621 18.0021 38.4205 17.9854C38.3789 17.9687 38.333 17.97 38.2923 17.9891L35.1036 19.5221C35.0929 19.5272 35.0833 19.5346 35.0754 19.5438C35.0674 19.5531 35.0612 19.564 35.0572 19.576C35.0531 19.5879 35.0513 19.6006 35.0518 19.6134C35.0524 19.6261 35.0552 19.6386 35.0603 19.65L35.096 19.7295C36.2104 22.145 38.2414 23.3528 41.1901 23.3528C42.8739 23.3528 44.2791 22.912 45.4047 22.0315C46.5313 21.1489 47.0941 19.8906 47.0941 18.2555C47.0941 17.1716 46.8344 16.2694 46.3158 15.5468C45.8269 14.8495 45.171 14.3149 44.4212 14.0026C43.6915 13.6995 42.946 13.4441 42.1887 13.2377C41.4443 13.0353 40.8127 12.802 40.2941 12.5357V12.5368Z" fill="#1D1B84"/>
</g>
<defs>
<clipPath id="clip0_344_3129">
<rect width="112" height="32" fill="white"/>
</clipPath>
</defs>
</svg>
